<?xml version="1.0" encoding="UTF-8"?>
<svg id="Layer_1" data-name="Layer 1" xmlns="http://www.w3.org/2000/svg" version="1.1" viewBox="0 0 500 500">
  <defs>
    <style>
      .cls-1 {
        stroke-width: 0px;
      }

      .cls-1, .cls-2, .cls-3 {
        fill: #ed254e;
      }

      .cls-2 {
        stroke-width: 2px;
      }

      .cls-2, .cls-3 {
        stroke: #ed254e;
        stroke-miterlimit: 10;
      }

      .cls-3 {
        stroke-width: 3px;
      }

      .cls-4 {
        opacity: 1;
      }
    </style>
  </defs>
  <g class="cls-4">
    <path class="cls-3" d="M175.8,74c-14.7.9-26.6,12-32.1,25.2-2.9,6.9-4,14.7-2.7,22,1.4,7.7,5.8,14.4,12.7,18.2,9,4.9,19.5,4.7,29.4,3.5,1.9-.2,1.9-3.2,0-3-8.3,1-16.9,1.4-24.8-1.6-6.9-2.7-11.9-8.1-13.9-15.3-3.5-13.1,2.1-27.9,11.8-37,5.3-5,12.2-8.5,19.5-9,1.9-.1,1.9-3.1,0-3h0Z"/>
  </g>
  <g class="cls-4">
    <path class="cls-3" d="M194.8,77.4c-.8,21.2-.9,42.5-.2,63.8,0,1.9,3.1,1.9,3,0-.7-21.3-.7-42.5.2-63.8,0-1.9-2.9-1.9-3,0h0Z"/>
  </g>
  <g class="cls-4">
    <path class="cls-3" d="M196.1,142.9c9.1-.5,18.1-1.1,27.2-1.6,1.9-.1,1.9-3.1,0-3-9.1.5-18.1,1.1-27.2,1.6-1.9.1-1.9,3.1,0,3h0Z"/>
  </g>
  <g class="cls-4">
    <path class="cls-3" d="M236.4,77.2c-1.3,21.2-1.8,42.4-1.4,63.6,0,1.9,3,1.9,3,0-.4-21.2.1-42.4,1.4-63.6.1-1.9-2.9-1.9-3,0h0Z"/>
  </g>
  <g class="cls-4">
    <path class="cls-3" d="M284.9,74.3c-7.1.2-13.7,3.3-18.9,8-5.6,5.1-9.2,12-10.8,19.3-1.8,7.8-1.6,16.1-.2,24,.6,3.6,1.7,7.3,3.9,10.4,2.3,3.2,5.7,5.3,9.4,6.6,9,3.2,19.1,3.3,28.3.7,1.9-.5,1.1-3.4-.8-2.9-7.6,2.1-15.7,2.3-23.4.3-3.5-.9-7-2.2-9.6-4.7-2.4-2.4-3.6-5.7-4.4-9-3.1-13.5-1.8-30,7.9-40.6,4.8-5.3,11.5-9,18.8-9.1,1.9,0,1.9-3,0-3h0Z"/>
  </g>
  <g class="cls-4">
    <path class="cls-3" d="M311,74.7c-.2,17.3-.5,34.7-.7,52,0,4.9-.1,9.8-.2,14.7,0,1.9,3,1.9,3,0,.2-17.3.5-34.7.7-52,0-4.9.1-9.8.2-14.7,0-1.9-3-1.9-3,0h0Z"/>
  </g>
  <g class="cls-4">
    <path class="cls-3" d="M341,72.6c-11.4,11.4-21.5,24.1-30,37.7-1,1.6,1.6,3.2,2.6,1.5,8.5-13.4,18.4-25.9,29.6-37.1,1.4-1.4-.8-3.5-2.1-2.1h0Z"/>
  </g>
  <g class="cls-4">
    <path class="cls-3" d="M313.6,111.1c13.9,9,23.1,23.4,37,32.4,1.6,1.1,3.1-1.5,1.5-2.6-13.9-9-23.1-23.4-37-32.4-1.6-1-3.1,1.5-1.5,2.6h0Z"/>
  </g>
  <g class="cls-4">
    <path class="cls-3" d="M183.5,235.8c4.8-17.2,9.5-34.5,14.3-51.7,1.4-4.9,2.7-9.8,4.1-14.7.5-1.9-2.4-2.7-2.9-.8-4.8,17.2-9.5,34.5-14.3,51.7-1.4,4.9-2.7,9.8-4.1,14.7-.5,1.9,2.4,2.7,2.9.8h0Z"/>
  </g>
  <g class="cls-4">
    <path class="cls-3" d="M199.2,170.8c2.2,16.3,5,32.6,8.4,48.8.9,4.6,1.9,9.1,3,13.7.4,1.9,3.3,1.1,2.9-.8-3.6-16.1-6.8-32.3-9.3-48.6-.7-4.6-1.4-9.2-2-13.9-.1-.8-1.1-1.2-1.9-1.1-.9.2-1.1,1.1-1,1.9h0Z"/>
  </g>
  <g class="cls-4">
    <path class="cls-3" d="M213.4,230.9c4.1-16.5,8.3-33,12.4-49.4,1.2-4.7,2.4-9.4,3.5-14.1.5-1.9-2.4-2.7-2.9-.8-4.1,16.5-8.3,33-12.4,49.4-1.2,4.7-2.4,9.4-3.5,14.1-.5,1.9,2.4,2.7,2.9.8h0Z"/>
  </g>
  <g class="cls-4">
    <path class="cls-3" d="M226.7,169.4c1.8,17.4,4,34.9,6.8,52.2.8,5,1.6,9.9,2.5,14.9.3,1.9,3.2,1.1,2.9-.8-3-17.1-5.5-34.3-7.5-51.5-.6-4.9-1.1-9.8-1.6-14.8-.2-1.9-3.2-1.9-3,0h0Z"/>
  </g>
  <g class="cls-4">
    <path class="cls-3" d="M254.1,167.2c-.8,17.6-1,35.3-.7,53,0,5.1.2,10.1.4,15.2,0,1.9,3.1,1.9,3,0-.6-17.7-.6-35.3-.2-53,.1-5.1.3-10.1.5-15.2.1-1.9-2.9-1.9-3,0h0Z"/>
  </g>
  <g class="cls-4">
    <path class="cls-3" d="M256.6,168.1c6.5-.2,12.9-.5,19.3-.9,1.9-.1,1.9-3.1,0-3-6.4.4-12.9.7-19.3.9-1.9,0-1.9,3.1,0,3h0Z"/>
  </g>
  <g class="cls-4">
    <path class="cls-3" d="M257.3,199.2c5.7-.2,11.4-.4,17.1-.6,1.9,0,1.9-3.1,0-3-5.7.2-11.4.4-17.1.6-1.9,0-1.9,3.1,0,3h0Z"/>
  </g>
  <g class="cls-4">
    <path class="cls-3" d="M256.7,236.7c4-.6,8-.6,12-.6s8.1,0,12.2,0,1.9-3,0-3c-4.2,0-8.4,0-12.7,0s-8.2,0-12.3.7c-1.9.3-1.1,3.2.8,2.9h0Z"/>
  </g>
  <g class="cls-4">
    <path class="cls-2" d="M295.2,164.3c-1.2,19.9-1,39.8.6,59.7.2,1.9,3.2,1.9,3,0-1.6-19.9-1.9-39.8-.6-59.7.1-1.9-2.9-1.9-3,0h0Z"/>
  </g>
  <g class="cls-4">
    <path class="cls-3" d="M160.6,171.4c-20.8,9.1-39.4,23-54.2,40.2-4.2,4.9-8.1,10-11.7,15.4-1.1,1.6,1.5,3.1,2.6,1.5,12.4-18.6,28.9-34.3,48-45.8,5.4-3.2,11-6.1,16.8-8.7,1.8-.8.2-3.4-1.5-2.6h0Z"/>
  </g>
  <g class="cls-4">
    <path class="cls-3" d="M90.2,208.4c3.1,6.4,4.2,13.5,3.4,20.5,0,.8.8,1.5,1.5,1.5.9,0,1.4-.7,1.5-1.5.9-7.6-.5-15.2-3.8-22-.8-1.7-3.4-.2-2.6,1.5h0Z"/>
  </g>
  <g class="cls-4">
    <path class="cls-3" d="M97.2,228.8c5.9-4.9,14.2-6.2,21.4-3.5,1.8.7,2.6-2.2.8-2.9-8.2-3.1-17.6-1.3-24.3,4.2-1.5,1.2.7,3.4,2.1,2.1h0Z"/>
  </g>
  <circle class="cls-1" cx="298.3" cy="234.3" r="3.3"/>
</svg>