<?xml version="1.0" encoding="UTF-8"?>
<svg id="Layer_1" data-name="Layer 1" xmlns="http://www.w3.org/2000/svg" version="1.1" viewBox="0 0 1920 2732">
  <defs>
    <style>
      .cls-1 {
        fill: #ed264f;
      }

      .cls-1, .cls-2 {
        stroke-width: 0px;
      }

      .cls-2 {
        fill: #fff;
      }
    </style>
  </defs>
  <path class="cls-1" d="M673.5,1215.8c-7.5-17.9-14.6-35.3-22.1-52.4-13.6-31.3-20.2-64.2-23-98-1-12.4-2.4-24.9-2.2-37.4.4-28.4,8-54.8,24.2-78.5,6-8.8,11.1-18.2,17.6-26.5,21-27.2,48.8-44.8,82.2-52,30.5-6.6,61.3-5.3,92,1.2,29.4,6.3,56,19.3,82.7,32.2,16.2,7.9,29,20.4,41.9,32.8,9.9,9.5,19.8,19,30.6,29.3,8.4-2.4,18.2-5.2,28.1-7.9,10.5-2.9,21.1-5.9,31.7-8.3,17.2-4,34.5-4.2,52.1-2.6,24.3,2.2,48.6,4.2,71.9,12,35.4,11.9,68.2,28.3,92.7,57.6,22.1,26.5,34,57.2,34.5,92,0,4.4.1,8.8.4,13.1,2.3,33.4-6.6,63.9-25,91.4-12.7,18.9-26.7,37-40.5,55.1-4.3,5.7-9.4,11-14.9,15.5-21.4,17.7-43,35.2-64.7,52.6-13.2,10.5-26.5,20.8-40.2,30.7-15.2,10.9-30.7,21.5-46.3,31.8-24.3,16-49.3,30.8-73.1,47.5-28.7,20-56.2,41.6-84.5,62.2-14.7,10.7-29.5,21-42.1,34.2-3.5,3.6-7.1,7-10.5,10.7-7.4,8.1-16.5,11.4-27.1,8.6-10-2.7-14.7-10.2-17.3-20.2-4.9-19-10.9-37.6-19.8-55.4-9.2-18.4-16.2-37.9-24.8-56.6-8.7-19-17.7-37.9-27.2-56.5-21.6-42.9-43.7-85.7-65.3-128.6-4.6-9.2-8-19-12.2-29.2M1188.6,1067.1c-3.8-2.7-7.3-5.9-11.4-8.1-8-4.4-18.6-1.9-23.5,5-5.2,7.5-3.8,16.7,3.7,23.4,2.1,1.9,4.1,3.8,6.2,5.6,6.5,5.5,7.4,12.6,6.2,20.4-.4,2.4-1.3,4.9-1.4,7.3-.3,8.8,5.4,16.1,13.5,17.7,7.7,1.5,15-2.8,18.5-10.9,1.2-2.8,2.9-5.4,4.1-8.3,1.2-3.1,2.8-6.4,2.9-9.7.5-16.5-2.6-31.8-18.9-42.5Z"/>
  <path class="cls-1" d="M640.9,742.1c.5,19.3.9,37.6,1.8,56,.4,7.3-1.5,13.1-6.8,16.2-5.6,3.3-11.3,2.7-17.3-2.1-10.3-8.1-20.9-15.4-33.3-20.1-6.4-2.4-12.4-6-18.7-8.7-4-1.7-8.2-3.2-12.4-4.1-26.5-5.5-53.2-6.6-80.2-5.3-22.9,1.1-45.6-.3-67.4-8.2-15.7-5.7-30.2-13.6-42.8-24.5-7.5-6.5-12.6-14.6-15.3-24.2-3.1-10.8-1.5-20.8,4.2-30.5,12-20.4,29.5-34.8,50.5-44.5,21.5-9.9,44.1-15.6,68.2-12,10.5,1.6,21,3,31.5,4.5,2.7.4,5.5.7,9.1,1.2.5-3.4,1.1-6.4,1.2-9.4,1.3-24.2,7.4-46.8,23.2-65.9,6.9-8.4,13-17.6,20.3-25.7,16.4-18.2,36.9-28.4,61.6-29.6,5.5-.3,10.4,1.1,15.1,4,6.1,3.8,12.4,7.2,18.5,11,9.1,5.7,15.2,13.7,18,24.2,4.2,15.8,6.1,31.8,3.4,48.2-2.5,14.8-3.8,29.8-7.2,44.3-4.5,19.4-10.1,38.6-16.1,57.6-4.8,15.3-6.7,31.1-9.1,47.7Z"/>
  <path class="cls-2" d="M1189.1,1067.6c15.8,10.3,18.9,25.5,18.4,42,0,3.3-1.7,6.5-2.9,9.7-1.1,2.8-2.9,5.5-4.1,8.3-3.5,8.1-10.8,12.4-18.5,10.9-8.1-1.6-13.9-9-13.5-17.7,0-2.4,1-4.9,1.4-7.3,1.2-7.8.3-14.9-6.2-20.4-2.1-1.8-4.2-3.7-6.2-5.6-7.5-6.7-8.9-15.9-3.7-23.4,4.9-7,15.5-9.5,23.5-5,4,2.2,7.6,5.4,11.8,8.6Z"/>
</svg>