<?xml version="1.0" encoding="UTF-8"?>
<svg xmlns="http://www.w3.org/2000/svg" viewBox="0 0 502.2 349.59">
  <defs>
    <style>
      .cls-1 {
        fill: #eeeaff;
      }

      .cls-1, .cls-2, .cls-3, .cls-4 {
        stroke-width: 0px;
      }

      .cls-2 {
        fill: #8ac7ff;
      }

      .cls-3, .cls-4 {
        fill: #000;
      }

      .cls-4 {
        isolation: isolate;
        opacity: .3;
      }

      .cls-5 {
        opacity: .5;
      }

      .cls-6 {
        opacity: .49;
      }
    </style>
  </defs>
  <g id="Layer_1" data-name="Layer 1">
    <path class="cls-4" d="M39.91,45.09s-22.1,285.37,76.5,304.5h343.36s-134.36-162-117.36-212"/>
    <path class="cls-2" d="M144.7,325.24h357.5c-122.71-110.85-104.79-280.15-104.79-280.15H39.91s-.41,218.3,104.79,280.15Z"/>
    <g class="cls-6">
      <rect class="cls-1" x="5.34" y="27.69" width="112.75" height="50.39" transform="translate(-16.91 32.3) rotate(-25.92)"/>
    </g>
    <g class="cls-5">
      <rect class="cls-1" x="352.5" y="-3.51" width="50.39" height="112.75" transform="translate(118.68 332.79) rotate(-55.19)"/>
    </g>
  </g>
  <g id="Layer_2" data-name="Layer 2">
    <path class="cls-3" d="M90.28,154.23c-3.22,2.3-6.47,6.68-5.27,10.88,1.51,5.28,7.81,4.93,12.1,5.64,4.63.77,9.22,4.2,11.08,8.55,2.05,4.8.26,10.49-4.32,13.1-2.85,1.62-6.58,1.44-9.6.4-1.06-.36-2.11-.82-3.13-1.27s-2.25-.93-2.89-1.88c-.54-.8-3.35.15-2.69,1.13,1.06,1.57,3.46,2.24,5.13,2.92,2.93,1.21,5.98,1.76,9.15,1.39,5.2-.6,10.12-3.85,11.7-9.03s-1.04-10.21-5.01-13.35c-1.93-1.52-4.18-2.75-6.58-3.33-2.65-.65-5.49-.37-8.08-1.24-2.77-.93-4.56-3.39-4.09-6.34.42-2.63,2.14-5.18,4.3-6.72,1.59-1.14-.88-1.51-1.8-.86h0Z"/>
    <path class="cls-3" d="M116.93,161.79c.22,4.69.47,9.38.81,14.06.17,2.26.35,4.51.58,6.76.11,1.13.2,2.25.3,3.38.08.99.44,2.2-.02,3.14l2.8-.36c-.39-.78-.42-1.67-.55-2.52-.19-1.25-.26-2.49-.34-3.75-.17-2.57-.39-5.13-.5-7.7-.12-2.76-.16-5.52-.1-8.27.05-2.13.03-4.35.53-6.44s1.81-4,3.41-5.29c1.81-1.47,4.63-.69,6.28.72,3.26,2.8,2.5,8.16.53,11.44-1.26,2.1-2.98,3.85-5.06,5.15-1.03.64-2.12,1.19-3.3,1.5-.68.18-1.78.56-2.36.02-.75-.69-3.47.41-2.69,1.13,1.46,1.35,4.05.7,5.75.21,2.62-.75,5.13-2.22,7.14-4.06,3.73-3.39,6.35-8.7,4.53-13.73s-8.99-6.21-13.01-2.99c-1.8,1.44-3.41,3.65-4.03,5.88-.77,2.78-.63,5.89-.64,8.75-.02,3.62.11,7.24.35,10.86.13,1.86.24,3.72.39,5.57.11,1.33.16,3.08.77,4.28.43.86,2.43.38,2.8-.36.85-1.73.24-4.06.07-5.91-.23-2.41-.46-4.83-.65-7.24-.38-5-.65-10.02-.88-15.03-.04-.92-2.95-.34-2.9.78h0Z"/>
    <path class="cls-3" d="M139.7,162.54c.07,4.95.12,9.91.69,14.83.28,2.46.51,4.88.49,7.36-.01,1.05-.03,2.11.08,3.15.13,1.18.5,2.28.74,3.44l2.9-.78c-.66-1.44-.83-3-1.04-4.55-.25-1.87-.53-3.73-.62-5.62-.18-3.65.14-7.29.32-10.93.16-3.25.35-6.62,1.57-9.68.47-1.17,1.11-2.26,1.93-3.21.68-.79,1.89-2.18,3.02-2.26s2.13,1.24,2.59,2.09c.65,1.19.87,2.64.82,3.98-.1,2.75-1.33,5.21-2.78,7.49-1.65,2.59-3.76,4.82-6.45,6.34-.94.53-2.03.99-2.52,2.02-.59,1.25.27,2.34,1.21,3.1,1.03.84,2.27,1.28,3.39,1.98,1.69,1.05,2.99,2.83,4.3,4.3s2.62,2.73,3.7,4.26c.87,1.22,1.3,2.89,2.62,3.71.8.5,3.47-.68,2.31-1.4-.61-.38-.92-1.21-1.24-1.81-.37-.68-.77-1.34-1.24-1.96-1.14-1.51-2.51-2.87-3.78-4.28s-2.38-2.83-3.86-3.87c-1.12-.78-2.45-1.19-3.51-2.05-.49-.4-1.16-.97-1.18-1.64-.02-.76.68-.99,1.25-1.29,1.43-.78,2.78-1.73,3.98-2.83,2.38-2.19,4.17-4.92,5.55-7.83,1.09-2.3,1.54-5.08.87-7.57s-2.78-4.62-5.55-4.33-5.15,2.33-6.75,4.49c-1.94,2.65-2.62,5.99-2.93,9.19-.39,4.09-.62,8.29-.6,12.4,0,2.3.18,4.59.52,6.86.29,1.92.38,3.89,1.2,5.68.43.95,3.12.27,2.9-.78-.24-1.15-.62-2.26-.74-3.44s-.09-2.28-.08-3.42c.02-2.38-.22-4.73-.5-7.09-.57-4.93-.62-9.88-.69-14.83-.01-.9-2.91-.35-2.9.78h0Z"/>
    <path class="cls-3" d="M163.86,156.9c.24,3.02.02,6.04,0,9.07,0,1.38.12,2.73.17,4.11.05,1.48-.28,2.97-.28,4.46s.03,2.85-.08,4.27c-.09,1.27-.15,2.56-.27,3.82-.26,2.81.15,5.67-.12,8.47-.11,1.16,2.8.62,2.9-.36.27-2.8-.13-5.66.12-8.47s.34-5.71.35-8.56c0-1.25.28-2.47.3-3.71.02-1.53-.19-3.05-.18-4.59.01-3.09.24-6.18-.01-9.28-.07-.94-2.99-.33-2.9.78h0Z"/>
    <path class="cls-3" d="M166.18,157.26c2.98-.15,5.93-.52,8.9-.78,1.38-.12,2.76-.19,4.15-.3.68-.06,1.35-.14,2.03-.18.3-.02.6-.01.9-.04.22-.02.44-.06.66-.11.36-.06.31-.07-.15-.03.68.09,1.53-.05,2.05-.55.4-.39.38-.94-.27-1.02s-1.24.04-1.89.11-1.33.08-2,.14c-1.42.13-2.84.2-4.25.31-3,.23-5.98.66-8.98.8-.63.03-1.56.18-1.91.79-.32.56.27.88.79.85h0Z"/>
    <path class="cls-3" d="M166.99,172.75c1.64-.18,3.25-.55,4.88-.79,1.54-.23,3.1-.25,4.64-.44.76-.09,1.54-.27,2.31-.3s1.55,0,2.35-.13c.65-.1,1.33-.26,1.98-.19.93.09,1.69.02,2.51-.48.43-.27.82-.79.25-1.13s-1.56-.03-2.05.27l-.23.14,1.1-.37c.52-.05-.54-.11-.68-.11-.3,0-.61.01-.91.05-.75.08-1.5.29-2.25.34s-1.54-.02-2.32.09c-.72.1-1.45.21-2.17.29-1.49.17-2.99.19-4.47.43s-3.02.57-4.55.74c-.52.06-1.54.36-1.65.98s.85.66,1.25.62h0Z"/>
    <path class="cls-3" d="M165.86,191.02c3.44-.65,6.94-1.18,10.44-1.25,1.72-.04,3.41-.23,5.14-.2s3.46-.27,5.2-.22l-.6-1.06c-.24.18-.34.38-.46.64-.28.61.96.65,1.25.62.64-.07,1.37-.37,1.65-.98l-.11.2c.74-.54-.01-1.04-.6-1.06-1.8-.05-3.58.24-5.39.21s-3.54.18-5.32.21c-3.62.07-7.25.61-10.8,1.28-.5.1-1.56.34-1.65.98s.83.7,1.25.62h0Z"/>
    <path class="cls-3" d="M193.65,188.28c.94-6.28,2.37-12.45,3.26-18.73.41-2.93,1.32-5.73,1.91-8.62.31-1.53.37-3.12.75-4.63s.69-2.86.91-4.36l-2.9.36v.1c-.18,1.13,2.73.62,2.88-.36v-.1c.18-1.13-2.73-.62-2.88.36-.22,1.42-.48,2.77-.86,4.16-.43,1.57-.48,3.23-.8,4.82-.59,2.89-1.5,5.68-1.91,8.62-.88,6.29-2.31,12.45-3.26,18.73-.17,1.13,2.75.63,2.9-.36h0Z"/>
    <path class="cls-3" d="M198.1,153.14c1.37,6.13,3,12.19,4.56,18.28.76,2.96,1.5,5.93,2.29,8.89.37,1.39.87,2.74,1.16,4.15.26,1.22.68,2.36.89,3.58l1.65-1.19h-.09c-.5.09-1.56.37-1.65,1s.83.68,1.25.62h.09c.51-.09,1.77-.45,1.65-1.2-.2-1.22-.63-2.36-.89-3.58-.29-1.41-.79-2.76-1.16-4.15-.79-2.96-1.54-5.93-2.29-8.89-1.56-6.09-3.18-12.15-4.56-18.28-.22-1-3.13-.26-2.9.78h0Z"/>
    <path class="cls-3" d="M197.43,173.64c-.21.16.16-.1.2-.12.06-.04.13-.07.19-.11-.16.08-.17.09-.03.02.14-.06.27-.11.41-.17.16-.06.14-.05-.06.02.07-.02.14-.04.21-.06.28-.08.58-.17.87-.21-.43.06.08-.01.16-.03.15-.03.3-.05.44-.07.78-.12,1.61-.2,2.34-.49.2-.08.51-.16.65-.32-.26.14-.52.22-.8.23.16,0,.32-.01.48-.03.33-.04.66-.13.97-.27.14-.06.28-.13.41-.21.14-.08.11-.07-.07.04l-1.14.23h.08c.65-.02,1.53-.2,1.91-.79.36-.56-.31-.87-.79-.85-.44.01-.85.08-1.26.24-.15.06-.32.14-.46.23l-.09.05.95-.27c-.33-.02-.73.05-1.05.14-.35.1-.63.27-.96.41.09-.04.17-.08.27-.11.18-.05.14-.02-.02,0-.16.03-.33.06-.49.08-.33.05-.66.1-.99.16-1.69.29-3.29.75-4.67,1.79-.17.13-.35.4-.29.63s.35.36.56.4c.72.13,1.48-.11,2.05-.55h0Z"/>
    <path class="cls-3" d="M215.34,152.13c.3,5.68.02,11.42.02,17.11,0,2.78.08,5.53.14,8.31.03,1.47.16,2.92.08,4.39s.21,2.94.08,4.38c-.1,1.16,2.81.61,2.9-.36.13-1.46-.15-2.91-.08-4.38.07-1.36-.04-2.66-.08-4.01-.08-2.9-.13-5.78-.14-8.68-.02-5.84.29-11.71-.02-17.54-.05-.93-2.96-.34-2.9.78h0Z"/>
    <path class="cls-3" d="M217.1,152.38c2.34-.26,4.45.4,6.53,1.47.89.46,1.72.99,2.55,1.55.77.52,1.54.86,2.05,1.67,1.1,1.75,2.35,3.3,2.96,5.3.65,2.15,1.59,3.97,1.26,6.31-.16,1.11-.46,2.14-.54,3.27-.07,1.05-.38,2.03-.8,3-.38.88-.75,1.83-1.18,2.69-.47.96-1.36,1.86-2.01,2.71-1.22,1.59-2.77,3.21-4.66,3.97-.8.32-1.61.51-2.44.74-.46.13-.93.24-1.4.36-.29.08-.96.38-1.24.34-.68-.1-1.54.05-2.05.55-.41.39-.37.93.27,1.02,1.73.26,3.45-.49,5.11-.92s3.24-.9,4.71-1.86c1.64-1.06,3.04-2.42,4.26-3.96.62-.78,1.27-1.58,1.85-2.39s.82-1.78,1.24-2.65.78-1.68,1.02-2.58c.28-1.04.2-2.1.43-3.15.43-1.94.59-3.86-.04-5.79-.59-1.8-1.17-3.69-2.2-5.29-.54-.83-1.16-1.58-1.65-2.44-.37-.65-.77-1.13-1.4-1.53-1.85-1.18-3.65-2.37-5.73-3.14-2.23-.82-4.12-1.11-6.5-.85-.5.06-1.57.37-1.65.98s.83.67,1.25.62h0Z"/>
    <path class="cls-3" d="M255.53,151.74c-3.43.68-7.01,1.92-9.49,4.53-1.1,1.16-1.75,2.89-1.8,4.48-.05,1.71.61,3.04,1.61,4.41s2.39,2.14,3.85,2.93c1.67.9,3.29,1.96,4.52,3.44,2.28,2.75,3.83,7.31,1,10.27-1.53,1.61-3.68,2.26-5.85,2-1.15-.14-2.38-.29-3.38-.91-.74-.46-1.78-.67-2.38-1.27-.72-.71-3.46.37-2.69,1.13.52.52,1.06.67,1.73.95.85.36,1.51.93,2.41,1.19,1.95.55,4.18.84,6.18.47,3.37-.62,6.78-2.45,8.02-5.82,1.28-3.5-.61-7.61-3.2-10.03-1.43-1.33-2.98-2.21-4.66-3.16s-2.78-2.05-3.78-3.81-.43-4.8,1.14-6.18c1.83-1.62,4-2.55,6.37-3.01.5-.1,1.56-.34,1.65-.98s-.83-.7-1.25-.62h0Z"/>
    <path class="cls-3" d="M265.07,153.43c-.24,2.81.05,5.62-.09,8.43-.12,2.58-.46,5.15-.58,7.73-.1,2.44-.46,4.89-.74,7.32s-.33,4.96-.69,7.42c-.17,1.13,2.75.62,2.9-.36.35-2.39.4-4.8.67-7.2s.66-5.02.77-7.54.43-4.99.56-7.49c.15-2.89-.15-5.78.1-8.67.1-1.16-2.81-.61-2.9.36h0Z"/>
    <path class="cls-3" d="M280.17,154.59c-.27,2.82-.24,5.64-.36,8.47s-.46,5.36-.66,8.04c-.35,4.66-.79,9.44-.77,14.09,0,.89,2.9.35,2.9-.78-.01-2.2.2-4.44.34-6.64.15-2.48.23-4.95.47-7.42s.51-5.1.62-7.66c.13-2.82.09-5.65.36-8.47.11-1.16-2.8-.62-2.9.36h0Z"/>
    <path class="cls-3" d="M266.95,168.31c1.1-.18,2.21-.26,3.31-.43s2.24-.14,3.35-.3c1.05-.14,2.02-.29,3.08-.19.57.05,1.12-.05,1.69-.06-.3,0,.68.08.44.07.18.01.37,0,.55-.01.28-.04.19-.05-.25-.04.69.12,1.53-.07,2.05-.55.43-.39.35-.92-.27-1.02-.34-.06-.64-.02-.98-.02.46,0-.42-.06-.55-.06-.49,0-.96.11-1.45.07-1.2-.1-2.36-.03-3.55.16s-2.33.14-3.49.32-2.37.28-3.55.47c-.52.08-1.54.35-1.65.98s.85.68,1.25.62h0Z"/>
    <path class="cls-3" d="M292.37,155.68c-.15,1.23-.17,2.47-.33,3.7-.14,1.08.05,2.15-.06,3.23-.24,2.38-.38,4.78-.56,7.17-.1,1.29-.33,2.56-.52,3.84s-.18,2.47-.31,3.71c-.23,2.23-.42,4.44-.52,6.68-.05,1.18,2.85.6,2.9-.36.1-2.16.19-4.33.49-6.47.17-1.22.12-2.44.31-3.68.21-1.35.45-2.71.56-4.08.18-2.32.34-4.64.54-6.95s.12-4.77.41-7.15c.14-1.14-2.78-.62-2.9.36h0Z"/>
    <path class="cls-3" d="M294.35,156.28c1.89-.11,3.74-.12,5.61.2.53.09,1.06.17,1.6.18.48,0,.93-.03,1.4.04.94.14,1.86.43,2.81.26l-1.25-.41v.07c.07.61,1.3.43,1.65.34.49-.13,1.32-.48,1.25-1.11v-.07c-.05-.46-.97-.46-1.26-.41-.2.03-.04.05-.3-.02-.17-.04-.34-.07-.51-.1-.49-.1-.99-.17-1.48-.21s-1.01.04-1.51,0-.99-.16-1.48-.23c-2.04-.3-4.09-.2-6.15-.09-.52.03-1.53.38-1.65.98-.13.66.87.64,1.25.62h0Z"/>
    <path class="cls-3" d="M293.76,169.08c.46-.03.94.04,1.4.04.43,0,.86,0,1.29,0,.9.03,1.85-.03,2.74.13.97.17,1.97.25,2.95.2.4-.02.74-.02,1.14.04.23.04.46.08.69.09.18.01.36,0,.54-.01.23,0,.24-.01.02-.01.69.11,1.52-.07,2.05-.55.43-.39.35-.93-.27-1.02-.36-.06-.68-.06-1.04-.04-.41.03.16.08-.22-.03-.49-.13-1.03-.15-1.54-.13-1.02.04-1.96-.04-2.97-.19s-2.06-.1-3.08-.13c-1.1-.03-2.22-.08-3.32,0-.53.04-1.53.38-1.65.98-.13.66.87.65,1.25.62h0Z"/>
    <path class="cls-3" d="M291.86,184.18c5-.18,10,0,14.97.42.6.05,1.43-.22,1.82-.69.32-.39.2-.86-.37-.92h-.08c-.69-.09-1.52.04-2.05.54-.4.38-.38.95.27,1.02h.08c.48-.53.97-1.06,1.45-1.6-.55-.05-1.03-.06-1.58-.12-.63-.07-1.25-.04-1.88-.07-1.19-.06-2.35-.24-3.55-.27-2.65-.05-5.31-.06-7.96.04-.63.02-1.56.19-1.91.79-.33.56.28.87.79.85h0Z"/>
    <path class="cls-3" d="M313.71,156.74c.11,4.89-.02,9.72-.24,14.6-.21,4.46-.4,8.94-.69,13.38-.08,1.18,2.75.59,2.9-.36v-.06c.18-1.12-2.73-.63-2.89.36v.06c.96-.12,1.92-.24,2.89-.36.31-4.57.49-9.16.71-13.74.23-4.91.34-9.75.23-14.66-.02-.91-2.92-.35-2.9.78h0Z"/>
    <path class="cls-3" d="M341.51,157.64c2.96-.58,6.04-.6,9.04-.69s6.06-.1,9.09.05c.61.03,1.58-.22,1.91-.79s-.29-.83-.79-.85c-1.5-.07-3-.05-4.51-.11-1.66-.06-3.27.05-4.93.07-3.11.05-6.36.13-9.42.73-.52.1-1.54.33-1.65.98s.85.7,1.25.62h0Z"/>
    <path class="cls-3" d="M316.39,157.25c2.26-.57,4.8-.32,7.11-.24s4.62.48,6.69.88c.67.13,1.55-.07,2.05-.55.43-.41.35-.9-.27-1.02-2.46-.47-5.03-.88-7.61-.96-2.77-.08-5.64-.25-8.35.44-.44.11-1.4.51-1.25,1.11s1.26.43,1.64.34h0Z"/>
    <path class="cls-3" d="M316.27,169.09c.94-.24,1.99-.2,2.96-.23,1.07-.03,2.14.06,3.21.12,2.09.12,4.16.34,6.24.53.61.06,1.58-.24,1.91-.79.37-.6-.32-.81-.79-.85-2.25-.21-4.49-.43-6.75-.55s-4.87-.26-7.17.33c-.44.11-1.4.51-1.25,1.11s1.26.43,1.64.34h0Z"/>
    <path class="cls-3" d="M314.25,185.15c1.33-.13,2.65-.34,3.98-.47s2.63-.08,3.92-.06,2.55.05,3.83.08c.74.02,1.44.09,2.18.17.59.06,1.24.02,1.82.13l-.46-.22.12.09c.52.42,1.35.27,1.92.03.29-.12,1.29-.74.77-1.16s-1.17-.38-1.82-.41c-.72-.03-1.42-.16-2.13-.22-1.53-.13-3.09-.11-4.63-.13s-3.09-.05-4.63.05-2.98.37-4.46.52c-.52.05-1.54.37-1.65.98-.11.65.86.66,1.25.62h0Z"/>
    <path class="cls-3" d="M349.41,157.04c-.05,1.3-.23,2.58-.4,3.87s-.04,2.52-.14,3.79c-.21,2.61-.44,5.21-.63,7.81-.17,2.29-.39,4.59-.44,6.88-.02,1.09-.09,2.18-.15,3.26-.05.81.27,1.96-.03,2.71-.37.92,2.51.59,2.9-.36.27-.67.02-1.68.03-2.4,0-1.12.12-2.24.15-3.36.06-2.36.28-4.73.45-7.09.18-2.53.38-5.05.61-7.57.11-1.26-.04-2.54.12-3.79.18-1.37.39-2.73.44-4.11.04-1.19-2.86-.6-2.9.36h0Z"/>
    <path class="cls-3" d="M380.72,155.93c-3.8-1.05-7.36-.9-10.66,1.46-1.15.83-2.27,2.37-1.76,3.86s2.05,3.03,3.25,3.97c1.43,1.13,3.19,1.41,4.73,2.32,1.86,1.09,3.72,2.26,5.03,4.03,1.22,1.64,1.25,4.09.88,6.02-.16.86-.66,1.57-1.09,2.32-.52.92-.93,1.9-1.76,2.61-1.73,1.48-4.13,2.11-6.38,2.26-1.07.07-2.15-.17-3.23-.11-1.38.08-2.68.19-4.06,0-.68-.09-1.54.05-2.05.55-.4.39-.37.94.27,1.02,1.05.15,2.1.25,3.16.2,1-.04,1.98-.21,2.99-.13,2.01.15,3.81-.06,5.77-.52s3.73-1.2,5.4-2.45c1.53-1.15,2.23-2.79,3.16-4.42.86-1.5.99-3.21.86-4.92-.16-2.01-1-3.4-2.39-4.79-1.47-1.48-3.29-2.59-5.12-3.58-.78-.42-1.67-.51-2.45-.9-.93-.47-1.69-1.17-2.4-1.92-.6-.64-1.51-1.61-1.74-2.47-.25-.97.4-1.9,1.18-2.4,2.22-1.42,4.21-1.1,6.62-.44.92.25,3.4-1.12,1.77-1.57h0Z"/>
    <path class="cls-3" d="M201.23,129.32c.53-3.82,1.28-7.59,2.12-11.35s1.63-7.54,2.6-11.27,1.57-7.3,2.63-10.89c.52-1.76,1.06-3.51,1.63-5.26.26-.79.53-1.57.77-2.36.18-.59.29-1.23.68-1.73l-2.24.76c.28.07.6,2.18.69,2.53.44,1.62.71,3.28,1.04,4.92s.56,3.15.91,4.71c.38,1.69.91,3.34,1.32,5.03.39,1.59.74,3.2,1.09,4.8s.87,2.93,1.37,4.41c.54,1.59.88,3.23,1.34,4.84.2.71.42,1.43.65,2.13s.65,1.33.68,2.04c.04.93,2.92.33,2.9-.78-.06-3.29.33-6.83,1.02-10.06.36-1.66.85-3.28,1.18-4.95s.52-3.19.9-4.77c.75-3.14,1.64-6.25,2.41-9.39.38-1.54.9-3.02,1.39-4.52.44-1.34.62-3.17,1.48-4.32l-2.8.36c.23,1.79.53,3.51.5,5.33s.14,3.69.35,5.57c.19,1.74.2,3.49.39,5.23s.42,3.48.74,5.21.26,3.61.48,5.41.62,3.65.91,5.47.63,3.48.89,5.22.89,3.4.96,5.11c.04.92,2.95.34,2.9-.78-.07-1.71-.71-3.41-.96-5.11s-.62-3.48-.89-5.22-.65-3.48-.88-5.24c-.24-1.88-.17-3.78-.51-5.64-.3-1.66-.53-3.31-.71-4.99-.2-1.81-.21-3.64-.41-5.45-.23-2.08-.34-4.06-.33-6.15.01-1.6-.32-3.17-.52-4.75-.14-1.08-2.46-.09-2.8.36-.81,1.08-1.03,2.64-1.41,3.91-.47,1.57-1.06,3.09-1.48,4.67-.44,1.67-.76,3.36-1.19,5.03s-.98,3.35-1.38,5.05-.61,3.33-.94,5-.84,3.29-1.18,4.95c-.68,3.31-1.03,6.87-.98,10.24l2.9-.78c-.03-.72-.47-1.36-.68-2.04-.25-.78-.49-1.56-.71-2.35-.47-1.69-.83-3.41-1.43-5.06-1.21-3.31-1.77-6.77-2.67-10.18s-1.61-6.94-2.29-10.45c-.26-1.36-.62-2.7-.93-4.05-.22-.94-.48-1.83-1.51-2.08-.73-.18-1.78.16-2.24.76-.75.98-.97,2.47-1.35,3.61-.6,1.81-1.17,3.64-1.72,5.47-1.11,3.67-1.77,7.42-2.72,11.13-1.93,7.58-3.77,15.31-4.83,23.06-.16,1.13,2.76.62,2.9-.36h0Z"/>
    <path class="cls-3" d="M239.82,86.39c2.05,4.45,4.26,8.84,5.9,13.47.71,2.01,1.72,4.04,2.19,6.11.29,1.27.38,2.5,1.94,2.6.71.05,1.71-.3,2.01-1,.9-2.09,1.18-4.38,2.09-6.46.95-2.19,2.07-4.24,2.85-6.51s1.69-4.36,2.63-6.5c.5-1.13,1-2.27,1.58-3.37.5-.95,1.14-1.91,1.45-2.94s-2.6-.62-2.9.36c-.35,1.17-1.13,2.25-1.67,3.34-.45.91-.85,1.84-1.26,2.76-.98,2.21-1.95,4.43-2.73,6.71s-1.81,4.19-2.75,6.31-1.26,4.51-2.18,6.67l2.01-1c.53.04.2-.14.07-.58-.07-.24-.11-.49-.16-.73-.14-.7-.33-1.34-.58-2.01-.75-2.02-1.48-4.05-2.25-6.06-1.56-4.07-3.51-7.98-5.33-11.94-.46-1-3.3-.09-2.9.78h0Z"/>
    <path class="cls-3" d="M248.79,106.35c.34,1.8.32,3.61.27,5.43s-.05,3.7-.05,5.54c0,.93.06,1.89-.02,2.82-.07.77-.2,1.52-.2,2.3,0,1.58-.2,3.25.23,4.76.29,1.01,3.18.23,2.9-.78-.41-1.44-.23-3.08-.23-4.59,0-.87.21-1.72.23-2.58.03-.99,0-2,0-2.99,0-3.52.44-7.22-.22-10.69-.19-.99-3.1-.28-2.9.78h0Z"/>
  </g>
</svg>