<?xml version="1.0" encoding="UTF-8"?>
<svg xmlns="http://www.w3.org/2000/svg" viewBox="0 0 451.42 345.85">
  <defs>
    <style>
      .cls-1 {
        fill: #eeeaff;
      }

      .cls-1, .cls-2, .cls-3, .cls-4 {
        stroke-width: 0px;
      }

      .cls-2 {
        fill: #ff645e;
      }

      .cls-3 {
        fill: #000;
        opacity: .3;
      }

      .cls-3, .cls-5 {
        isolation: isolate;
      }

      .cls-4 {
        fill: #fff7ba;
      }

      .cls-6 {
        opacity: .5;
      }

      .cls-7 {
        opacity: .49;
      }
    </style>
  </defs>
  <g id="Layer_1" data-name="Layer 1">
    <path class="cls-3" d="M40.22,45.09S178.88,323.61.31,344.59c-14.6,1.71,485.72,1.29,449.2,1-50.68,0-144.79-96-127.79-146"/>
    <path class="cls-4" d="M11.55,323.5l437.97,3.73c-117.47-58.71-51.79-282.15-51.79-282.15H40.22S104.62,241.27,11.55,323.5Z"/>
    <g class="cls-7">
      <rect class="cls-1" x="5.66" y="27.69" width="112.75" height="50.39" transform="translate(-16.88 32.44) rotate(-25.92)"/>
    </g>
    <g class="cls-6">
      <rect class="cls-1" x="352.81" y="-3.51" width="50.39" height="112.75" transform="translate(118.81 333.05) rotate(-55.19)"/>
    </g>
  </g>
  <g id="Layer_2" data-name="Layer 2">
    <g class="cls-5">
      <path class="cls-2" d="M172.43,131.84c2.75-10.05,5.5-20.09,8.25-30.14l4.06-14.83,2.09-7.65c.33-1.22.62-2.46,1.01-3.66.14-.41.28-.85.52-1.22.11-.18.24-.34.38-.49.39-.29.25-.33-.42-.13l-2.74-1.64c5.88,15.51,11.76,31.02,17.64,46.53.36.94,1.5,1.4,2.42,1.57.57.11,2.29.29,2.41-.62,2.23-16.57,4.47-33.15,6.7-49.72l-4.83-.95c5.34,15.78,10.69,31.55,16.03,47.33,1.52,4.47,3.03,8.95,4.55,13.42.35,1.04,1.75,1.52,2.74,1.64.55.07,2.44.02,2.08-1.03-5.34-15.78-10.69-31.55-16.03-47.33-1.52-4.47-3.03-8.95-4.55-13.42-.32-.95-1.53-1.41-2.42-1.57-.57-.11-2.29-.29-2.41.62-2.23,16.57-4.47,33.15-6.7,49.72l4.83.95c-5.88-15.51-11.76-31.02-17.64-46.53-.4-1.05-1.74-1.49-2.74-1.64-4.32-.65-4.87,4-5.72,7.12l-3.47,12.68c-2.31,8.45-4.62,16.9-6.94,25.36l-3.93,14.35c-.46,1.67,4.37,2.98,4.83,1.29h0Z"/>
    </g>
    <g class="cls-5">
      <path class="cls-2" d="M242.01,77.2c4.27,8.25,8.55,16.51,12.82,24.76.58,1.12,4.08,2.14,4.66.6,3.66-9.73,8.27-19.08,13.82-27.88,1.05-1.67-3.63-3.25-4.49-1.89-5.68,8.99-10.43,18.52-14.17,28.47l4.66.6c-4.27-8.25-8.55-16.51-12.82-24.76-.72-1.39-5.55-1.94-4.5.1h0Z"/>
    </g>
    <g class="cls-5">
      <path class="cls-2" d="M254.92,101.99c-.3,8.13.08,16.26,1.17,24.33.22,1.63,5.09,2.51,4.83.61-1.06-7.83-1.46-15.74-1.17-23.64.07-1.85-4.77-2.83-4.83-1.29h0Z"/>
    </g>
    <g class="cls-5">
      <path class="cls-2" d="M86.82,175.27l-.53,44c-.02,1.86,4.81,2.81,4.83,1.29l.53-44c.02-1.86-4.81-2.81-4.83-1.29h0Z"/>
    </g>
    <g class="cls-5">
      <path class="cls-2" d="M92.78,175.35c2.18-3.21,5.04-5.93,8.58-7.59,1.55-.73,3.22-1.25,4.93-1.44,1.02-.11,1.57-.2,2.13.73.98,1.66-.42,3.74-1.19,5.19-1.06,2-2.19,3.95-3.41,5.86-2.34,3.68-4.94,7.17-7.81,10.46l4.49,1.89c2.18-2.95,6.33-5.81,10.17-4.42s6.05,6.05,6.81,9.77c1.83,8.94-4.21,18.82-13.18,20.95-4.81,1.14-9.32-.28-12.78-3.76-.78-.79-2.35-1.17-3.42-.92s-1.18.98-.46,1.71c8.37,8.4,22.81,8.06,30.41-1.16,3.62-4.4,5.36-10.19,4.33-15.84s-4.38-10.41-9.49-12.6c-5.97-2.56-13-.88-16.88,4.38-1.16,1.57,3.42,3.11,4.49,1.89,2.67-3.06,5.12-6.31,7.33-9.72,1.11-1.71,2.16-3.46,3.16-5.24.92-1.63,2.2-3.47,2.53-5.35.65-3.67-2.99-5.8-6.09-6.41-3.36-.65-7.04.29-10.07,1.75-3.68,1.77-6.77,4.59-9.05,7.95-1.1,1.62,3.57,3.24,4.49,1.89h0Z"/>
    </g>
    <g class="cls-5">
      <path class="cls-2" d="M135.06,166.16c-6.42,4.72-10.26,12.42-11.77,20.11-1.61,8.17-.88,17.54,3.7,24.68,2.51,3.91,6.47,6.79,11.22,7,4.84.22,9.13-2.6,11.98-6.35,5.96-7.86,6.47-18.71,3.79-27.91-1.45-4.99-3.85-10.22-8.05-13.48s-10.6-4.5-15.21-1.12c-.9.66.83,1.74,1.29,1.94.99.42,2.28.62,3.2-.05,7.44-5.45,12.81,7.8,14.19,12.97,2.17,8.15,1.83,17.65-3.02,24.83-2.02,2.98-5.37,6.42-9.24,6.45-3.1.03-5.36-3.67-6.61-6.06-3.39-6.5-3.79-14.53-2.4-21.61,1.48-7.52,5.15-14.89,11.43-19.51.9-.66-.83-1.74-1.29-1.94-.98-.42-2.29-.62-3.2.05h0Z"/>
    </g>
    <g class="cls-5">
      <path class="cls-2" d="M167.06,164.56c-4.31,1.05-6.24,5.88-7.9,9.53-2.04,4.47-3.63,9.19-4.34,14.07-1.22,8.43.2,18.01,6.27,24.39,3.34,3.52,8.42,5.71,13.24,4.26,4.21-1.26,7.55-4.55,9.85-8.18,4.81-7.61,6.33-17.52,3.9-26.21-2.56-9.18-10.51-17.07-20.47-16.93-.84.01-1.85.47-1.31,1.42s2.2,1.33,3.19,1.32c6.57-.09,11.45,6.6,13.34,12.21,2.56,7.57,1.8,16.22-1.57,23.42-1.55,3.32-3.79,6.49-6.78,8.67-1.41,1.02-3.36,2.15-5.17,2.01-1.54-.12-2.92-1.37-3.97-2.41-5.21-5.15-6.58-13.66-5.93-20.65.45-4.78,1.78-9.43,3.61-13.86.88-2.13,1.85-4.25,2.97-6.26.87-1.57,2.15-3.71,4.03-4.17.99-.24,1.19-1.01.46-1.71-.79-.75-2.35-1.17-3.42-.92h0Z"/>
    </g>
    <g class="cls-5">
      <path class="cls-2" d="M194.8,165.25c-.49,15.34-.99,30.69-1.48,46.03-.06,1.85,4.78,2.83,4.83,1.29.49-15.34.99-30.69,1.48-46.03.06-1.85-4.78-2.83-4.83-1.29h0Z"/>
    </g>
    <g class="cls-5">
      <path class="cls-2" d="M211.24,168.99c-3.19,4.1-6.32,8.23-9.41,12.41-1.55,2.09-3.08,4.2-4.61,6.31-1.19,1.65-3.18,3.64-3.39,5.76-.2,1.95,1.08,3.56,2.55,4.67,1.93,1.47,4.19,2.55,6.29,3.75,4.6,2.64,9.21,5.28,13.81,7.93.9.51,2.44,1.02,3.42.45s.3-1.47-.42-1.88c-4.32-2.48-8.63-4.95-12.95-7.43-1.96-1.12-3.95-2.2-5.88-3.38-1.45-.88-2.42-2.18-1.7-3.91.37-.9,1.07-1.7,1.63-2.48.76-1.06,1.52-2.12,2.29-3.17,1.34-1.84,2.68-3.68,4.04-5.51,2.9-3.91,5.84-7.78,8.83-11.62,1.17-1.51-3.47-3.2-4.49-1.89h0Z"/>
    </g>
    <g class="cls-5">
      <path class="cls-2" d="M232.27,166.16c-4.74,1.19-8.16,5.02-9.8,9.51-.87,2.39-1.2,4.99-.95,7.52.29,2.88,1.65,5.18,4.12,6.71,2.61,1.62,5.65,2.76,8.53,3.77,2.24.78,5.17,1.22,6.88,3.01,3.22,3.37,2.16,9.67-.73,12.87-1.79,1.98-4.38,3.17-7.06,3.18-3.18,0-6.21-1.6-8.92-3.1-.91-.5-2.43-1.02-3.42-.45s-.31,1.48.42,1.88c5.49,3.03,11.95,5.73,18.26,3.67,5.04-1.65,8.2-6.21,8.19-11.47,0-2.44-.67-4.87-2.29-6.74-2.03-2.35-4.95-3.4-7.83-4.32s-5.72-1.96-8.38-3.36-3.17-4.32-3-7.11c.3-5.24,3.42-11.58,8.92-12.96.98-.25,1.19-1,.46-1.71-.79-.75-2.35-1.18-3.42-.92h0Z"/>
    </g>
    <g class="cls-5">
      <path class="cls-2" d="M251.6,167.94c-.22,15.11-.43,30.22-.65,45.33-.03,1.86,4.81,2.81,4.83,1.29.22-15.11.43-30.22.65-45.33.03-1.86-4.81-2.81-4.83-1.29h0Z"/>
    </g>
    <g class="cls-5">
      <path class="cls-2" d="M271.11,170.29c.86,14.8.52,29.64-1.01,44.38-.19,1.82,4.66,2.9,4.83,1.29,1.55-14.97,1.88-30.05,1.01-45.07-.09-1.6-4.94-2.58-4.83-.61h0Z"/>
    </g>
    <g class="cls-5">
      <path class="cls-2" d="M258.18,191.09c4.9-.73,9.85-1.1,14.81-1.14.78,0,1.92-.49,1.31-1.42s-2.14-1.33-3.19-1.32c-5.32.04-10.63.47-15.89,1.26-1.02.15-1.16,1.07-.46,1.71.88.8,2.27,1.09,3.42.92h0Z"/>
    </g>
    <g class="cls-5">
      <path class="cls-2" d="M283.7,169.97c-.79,15.31-1.18,30.64-1.17,45.97,0,1.86,4.83,2.79,4.83,1.29,0-15.33.38-30.66,1.17-45.97.09-1.85-4.75-2.85-4.83-1.29h0Z"/>
    </g>
    <g class="cls-5">
      <path class="cls-2" d="M286.82,172.61l8.81-.91,4.23-.44,2.11-.22c.39-.04.78-.06,1.16-.12.11-.01.21-.02.32-.02-1.62-1.14-2.22-1.33-1.77-.56.7,1.41,5.52,1.97,4.5-.1-.84-1.69-3.33-2.18-5.03-2.06s-3.53.36-5.29.55c-3.64.38-7.28.75-10.93,1.13-.75.08-1.95.44-1.31,1.42.58.88,2.18,1.42,3.19,1.32h0Z"/>
    </g>
    <g class="cls-5">
      <path class="cls-2" d="M288.38,194.35c5.55-.41,11.08-.99,16.59-1.74,1.03-.14,1.15-1.07.46-1.71-.89-.81-2.26-1.07-3.42-.92-5.15.7-10.33,1.24-15.52,1.63-.76.06-1.94.45-1.31,1.42.59.9,2.16,1.39,3.19,1.32h0Z"/>
    </g>
    <g class="cls-5">
      <path class="cls-2" d="M287.62,216.93c6.97-1.12,13.96-2.08,20.97-2.9,1.04-.12,1.14-1.08.46-1.71-.9-.82-2.25-1.05-3.42-.92-7.01.81-14,1.78-20.97,2.9-1.01.16-1.17,1.06-.46,1.71.87.79,2.28,1.1,3.42.92h0Z"/>
    </g>
    <g class="cls-5">
      <path class="cls-2" d="M312.15,170.32c.37,14.8-.1,29.6-1.39,44.35-.16,1.83,4.69,2.88,4.83,1.29,1.31-14.97,1.76-30.01,1.39-45.03-.04-1.58-4.88-2.6-4.83-.61h0Z"/>
    </g>
    <g class="cls-5">
      <path class="cls-2" d="M315.04,215.28c5.7-.67,11.39-1.34,17.09-2,1.04-.12,1.14-1.08.46-1.71-.9-.82-2.25-1.05-3.42-.92-5.7.67-11.39,1.34-17.09,2-1.04.12-1.14,1.08-.46,1.71.9.82,2.25,1.05,3.42.92h0Z"/>
    </g>
    <g class="cls-5">
      <path class="cls-2" d="M334.48,170c.41,15.1.37,30.21-.13,45.31-.06,1.85,4.78,2.83,4.83,1.29.51-15.33.55-30.67.13-46-.04-1.58-4.88-2.6-4.83-.61h0Z"/>
    </g>
    <g class="cls-5">
      <path class="cls-2" d="M339.58,173.93c7.75-.76,15.52-1.23,23.3-1.42.83-.02,1.85-.46,1.31-1.42s-2.2-1.34-3.19-1.32c-7.78.19-15.55.66-23.3,1.42-.81.08-1.87.42-1.31,1.42.51.9,2.23,1.41,3.19,1.32h0Z"/>
    </g>
    <g class="cls-5">
      <path class="cls-2" d="M338.2,191.47c4.2.82,8.46.38,12.64-.29s8.1-1.57,12.19-1.23c.72.06,2.23.05,2.08-1.03-.14-1-1.96-1.57-2.74-1.64-4.29-.35-8.49.28-12.71.99s-8.06,1.33-12.12.54c-.72-.14-2.23,0-2.08,1.03s1.95,1.48,2.74,1.64h0Z"/>
    </g>
  </g>
</svg>