<?xml version="1.0" encoding="UTF-8"?>
<svg id="Layer_1" data-name="Layer 1" xmlns="http://www.w3.org/2000/svg" viewBox="0 0 390.52 275.08">
  <defs>
    <style>
      .cls-1 {
        fill: #ed254e;
        stroke-width: 0px;
      }
    </style>
  </defs>
  <path class="cls-1" d="M3.79,31.44c2.93-.6,5.87-1.2,8.8-1.8l21.14-4.32c8.53-1.74,17.05-3.48,25.58-5.23l22.11-4.52c3.56-.73,7.23-1.27,10.74-2.19.05-.01.1-.02.15-.03,1.59-.32,2.5-2.2,2.1-3.69-.45-1.65-2.1-2.42-3.69-2.1-2.93.6-5.87,1.2-8.8,1.8l-21.14,4.32c-8.53,1.74-17.05,3.48-25.58,5.23l-22.11,4.52c-3.56.73-7.23,1.27-10.74,2.19-.05.01-.1.02-.15.03-1.59.32-2.5,2.2-2.1,3.69.45,1.65,2.1,2.42,3.69,2.1h0Z"/>
  <path class="cls-1" d="M42.1,23.45c.54,24.91.88,49.83,1,74.75.03,6.98.05,13.95.05,20.93,0,3.86,6,3.87,6,0,0-24.92-.22-49.84-.64-74.75-.12-6.98-.26-13.95-.41-20.93-.08-3.86-6.08-3.87-6,0h0Z"/>
  <path class="cls-1" d="M98.79,10.94c-1.57,27.67-1.95,55.4-1.11,83.1.24,7.8.57,15.59.99,23.38.09,1.62,1.32,3,3,3,1.56,0,3.09-1.37,3-3-1.51-27.67-1.82-55.41-.93-83.11.25-7.8.6-15.59,1.05-23.37.09-1.62-1.44-3-3-3-1.7,0-2.91,1.38-3,3h0Z"/>
  <path class="cls-1" d="M134.36,12.1c-1.86,27.07-2.6,54.21-2.18,81.34.12,7.61.33,15.22.62,22.82.06,1.62,1.33,3,3,3,1.58,0,3.06-1.37,3-3-1.06-27.11-.98-54.27.25-81.37.34-7.6.78-15.2,1.3-22.79.11-1.62-1.46-3-3-3-1.72,0-2.89,1.38-3,3h0Z"/>
  <path class="cls-1" d="M101.61,68.4c10.63-1.23,21.2-2.92,31.68-5.11,1.59-.33,2.51-2.2,2.1-3.69-.45-1.65-2.1-2.43-3.69-2.1-9.95,2.08-19.98,3.72-30.08,4.89-1.61.19-3,1.25-3,3,0,1.48,1.38,3.19,3,3h0Z"/>
  <path class="cls-1" d="M153.41,115.36c4.32-27.86,10.02-55.5,17.07-82.8,1.99-7.69,4.08-15.34,6.28-22.97,1.07-3.72-4.72-5.3-5.79-1.6-7.81,27.09-14.29,54.56-19.38,82.29-1.43,7.81-2.76,15.64-3.97,23.48-.25,1.6.41,3.23,2.1,3.69,1.42.39,3.44-.48,3.69-2.1h0Z"/>
  <path class="cls-1" d="M171.62,10.02c3.74,27.11,8.93,54.02,15.54,80.57,1.88,7.54,3.88,15.05,5.98,22.54,1.04,3.71,6.84,2.13,5.79-1.6-7.41-26.34-13.43-53.08-17.99-80.06-1.3-7.66-2.47-15.35-3.53-23.05-.22-1.61-2.28-2.48-3.69-2.1-1.73.48-2.32,2.08-2.1,3.69h0Z"/>
  <path class="cls-1" d="M161.72,66.14c5.68.94,11.44,1.31,17.19.92,1.39-.09,2.77-.23,4.14-.4,1.65-.21,3.24-.71,3.87-2.42.68-1.86-.33-3.86-2.26-4.37s-4.19.96-4.07,3.11c.09,1.62,1.31,3,3,3,1.55,0,3.1-1.37,3-3v-.13c-.3.71-.59,1.41-.89,2.12l.08-.07-1.32.77.13-.02h-1.6l-.95-.58-.88-2.12.02.14.41-1.51c.37-.84,1.82-.95.84-.83-.48.06-.97.11-1.45.15-.83.08-1.66.15-2.49.2-1.73.11-3.47.15-5.2.13-3.34-.04-6.68-.32-9.98-.86-1.6-.26-3.23.42-3.69,2.1-.39,1.43.49,3.43,2.1,3.69h0Z"/>
  <path class="cls-1" d="M205.85,13.98c18.37-1.62,36.86-1.63,55.23-.01,1.62.14,3-1.48,3-3,0-1.74-1.38-2.86-3-3-18.37-1.61-36.86-1.61-55.23.01-1.61.14-3,1.28-3,3,0,1.51,1.38,3.14,3,3h0Z"/>
  <path class="cls-1" d="M227.95,12.07c-.68,25.72-.87,51.45-.55,77.18.09,7.3.22,14.61.39,21.91.09,3.85,6.09,3.87,6,0-.6-25.72-.71-51.46-.31-77.18.11-7.3.27-14.61.46-21.91.1-3.86-5.9-3.86-6,0h0Z"/>
  <path class="cls-1" d="M275.92,2.18c-2.29,6.64-4.57,13.28-6.86,19.92-.51,1.49.58,3.35,2.1,3.69,1.67.38,3.14-.5,3.69-2.1,2.29-6.64,4.57-13.28,6.86-19.92.51-1.49-.58-3.35-2.1-3.69-1.67-.38-3.14.5-3.69,2.1h0Z"/>
  <path class="cls-1" d="M312.84,6.29c-11.95,1.17-23.18,8.49-28.46,19.4-2.5,5.18-3.67,11.71-.79,16.99,3.37,6.17,10.94,6.49,17.02,7.91,6.38,1.49,12.71,3.44,18.64,6.27,5.58,2.67,11.16,6,15.36,10.62,1.81,1.99,3.28,4.3,3.99,6.87.81,2.95.45,6-.5,8.87-1.77,5.35-5.68,10.15-10.21,13.4-5.28,3.79-11.49,5.92-18.02,5.86s-13.2-2.26-18.37-6.32c-1.27-1-3-1.24-4.24,0-1.04,1.04-1.28,3.24,0,4.24,10.51,8.25,24.7,10.41,37.05,5.12,5.53-2.37,10.49-6.15,14.2-10.89,4.19-5.36,7.27-12.15,6.41-19.1-.81-6.57-5-11.97-10.04-16.01-5.45-4.37-11.59-7.65-18.06-10.22s-12.71-4.2-19.27-5.5c-2.77-.55-6.12-.89-8.09-3.15-1.29-1.47-1.63-3.72-1.49-5.99.17-2.68,1.24-5.44,2.66-7.89,1.56-2.7,3.46-4.98,5.8-7.09,4.51-4.06,10.54-6.81,16.44-7.39,1.61-.16,3-1.27,3-3,0-1.5-1.38-3.16-3-3h0Z"/>
  <path class="cls-1" d="M62.48,262.63c2.65-30.69,7.87-61.14,15.56-90.97,2.16-8.37,4.51-16.7,7.06-24.96h-5.79c6.56,17.22,10.01,35.39,12.71,53.56.77,5.2,1.48,10.4,2.19,15.61.2,1.46,1.99,2.34,3.29,2.15,1.58-.24,2.43-1.42,2.6-2.95,2.17-19.48,4.44-39.69,12.67-57.71,2.34-5.13,5.16-10.02,8.47-14.58l-5.59-1.51c1.45,32.44,5.1,64.78,10.9,96.73,1.63,8.96,3.43,17.89,5.4,26.78.35,1.58,2.19,2.51,3.69,2.1,1.63-.45,2.45-2.1,2.1-3.69-6.9-31.19-11.71-62.82-14.34-94.65-.75-9.08-1.33-18.17-1.73-27.27-.14-3.13-3.87-3.88-5.59-1.51-12.16,16.72-16.96,37.32-19.78,57.46-.83,5.94-1.52,11.9-2.19,17.87l5.89-.8c-2.48-18.22-4.98-36.52-9.98-54.26-1.42-5.04-3.05-10.02-4.91-14.91-1.03-2.7-4.87-2.99-5.79,0-9.16,29.81-15.81,60.35-19.94,91.27-1.17,8.73-2.13,17.49-2.89,26.26-.14,1.62,1.48,3,3,3,1.74,0,2.86-1.38,3-3h0Z"/>
  <path class="cls-1" d="M155.67,146.47c-1.35,29.67-1.73,59.38-1.14,89.08.17,8.46.42,16.92.75,25.37.06,1.62,1.33,3,3,3,1.58,0,3.06-1.37,3-3-1.15-29.68-1.33-59.39-.53-89.08.23-8.46.54-16.92.92-25.37.07-1.62-1.43-3-3-3-1.69,0-2.93,1.37-3,3h0Z"/>
  <path class="cls-1" d="M160.87,149.72c13.84-1.09,27.78-2.15,41.6-.34,1.61.21,3-1.53,3-3,0-1.8-1.39-2.79-3-3-13.82-1.81-27.77-.75-41.6.34-1.62.13-3,1.29-3,3,0,1.52,1.38,3.13,3,3h0Z"/>
  <path class="cls-1" d="M162.21,198.27c12.53-2.16,25.22-3.22,37.94-3.24,3.86,0,3.87-6.01,0-6-13.25.02-26.48,1.2-39.53,3.45-1.6.28-2.49,2.24-2.1,3.69.46,1.69,2.09,2.37,3.69,2.1h0Z"/>
  <path class="cls-1" d="M161.66,264.43c12.94-2.15,25.97-3.67,39.05-4.58,1.62-.11,3-1.3,3-3,0-1.54-1.38-3.11-3-3-13.62.95-27.18,2.55-40.65,4.79-1.6.27-2.49,2.24-2.1,3.69.47,1.7,2.09,2.36,3.69,2.1h0Z"/>
  <path class="cls-1" d="M287.54,190.21c9.51-.39,19.05-.93,28.57-.81,5.79.07,11.57.42,17.35.53,8.06.16,16.13.19,24.19.19,3.86,0,3.87-6,0-6-11.24,0-22.49-.04-33.73-.47-5.31-.21-10.6-.3-15.91-.17-6.83.17-13.65.45-20.48.73-1.62.07-3,1.33-3,3,0,1.57,1.37,3.07,3,3h0Z"/>
  <path class="cls-1" d="M354.56,187.21c-.08,12.63-.19,25.26-.02,37.89.09,6.52.2,13.03.21,19.55.02,9.14-.03,18.29-.09,27.43-.02,3.86,5.98,3.87,6,0,.08-12.63.19-25.26.02-37.89-.09-6.52-.2-13.03-.21-19.55-.02-9.14.03-18.29.09-27.43.02-3.86-5.98-3.87-6,0h0Z"/>
  <path class="cls-1" d="M361.07,273.6c8.35-12.71,17.93-24.56,28.58-35.42,2.71-2.76-1.53-7.01-4.24-4.24-11,11.22-20.89,23.51-29.52,36.64-.89,1.35-.27,3.32,1.08,4.1,1.46.86,3.21.28,4.1-1.08h0Z"/>
  <path class="cls-1" d="M243.41,139.53c-.73,24.33-.78,48.69-.13,73.03.18,6.89.42,13.79.72,20.68.07,1.62,1.33,3,3,3,1.57,0,3.07-1.37,3-3-1.03-24.32-1.39-48.68-1.04-73.02.1-6.9.25-13.79.46-20.68.12-3.86-5.88-3.86-6,0h0Z"/>
  <path class="cls-1" d="M245.92,256.73c-.2.49.06,0,.08-.08-.05.21-.2.23-.03.05.04-.05.11-.09.15-.14.11-.14-.32.21-.08.06.06-.04.11-.07.17-.11s.12-.06.18-.1c.24-.13-.35.1-.01.01.13-.03.28-.06.41-.1.19-.06-.4.03-.11.01.09,0,.17-.01.25-.01.14,0,.29.03.43.02-.03,0-.38-.08-.15-.01.11.03.22.05.33.09.04.01.12.06.16.06l-.2-.09c.05.02.1.05.15.07.12.06.24.18.36.22-.22-.07-.19-.16-.08-.05.07.07.15.14.21.21,0,0,.14.14.13.15-.13-.17-.15-.2-.05-.07.04.05.07.11.11.16.09.14.16.29.24.44.13.26-.04-.08-.03-.08.03,0,.09.26.1.29.05.16.09.33.12.49.01.07.12.3.02.1-.02-.13-.02-.13,0,0,0,.07.01.14.02.2.01.17.01.34,0,.51,0,.05,0,.49-.04.51l.03-.2c-.01.07-.02.13-.03.2-.01.07-.03.13-.04.2-.05.23-.12.44-.19.66-.11.36.15-.26-.03.07-.04.07-.07.14-.11.2-.05.08-.11.23-.18.29.03-.02.22-.23.02-.04,0,0-.21.22-.22.21-.03-.03.27-.18.08-.06-.08.05-.16.1-.24.14-.26.16.31-.09.01,0-.15.05-.3.09-.46.12-.33.08.36-.02.02,0-.06,0-.13,0-.19,0-.1,0-.19,0-.29-.01-.33,0,.27.06.06.01-.18-.04-.35-.07-.52-.13l-.09-.03c-.15-.06-.12-.04.08.04-.02.01-.19-.09-.22-.11-.15-.08-.28-.17-.42-.26-.17-.11.26.25.04.02-.08-.08-.16-.15-.23-.22-.05-.05-.1-.1-.15-.16-.05-.05-.09-.11-.14-.16.11.15.14.18.08.09-.1-.17-.21-.33-.31-.5-.03-.06-.07-.13-.1-.19l-.05-.1c-.07-.15-.06-.13.02.06-.1-.11-.13-.37-.18-.51-.06-.21-.11-.42-.15-.64-.01-.07-.03-.14-.04-.22-.07-.37.03.34,0-.04-.02-.18-.03-.36-.04-.54s0-.37,0-.55c0-.36-.06.22,0,.01.03-.11.01-.07-.06.1.08-.14.07-.13-.05.03.17-.19-.02-.02-.05.01.08-.07.2-.13.29-.18.08-.04.17-.08.25-.12.2-.1-.35.11,0,0,.17-.05.34-.12.52-.16.11-.03.21-.05.32-.07l.11-.02c.17-.03.14-.02-.07,0,.11-.06.42-.03.54-.03.18,0,.36.04.54.03-.36.02-.11-.01.02.02.07.02.14.03.21.05.06.02.27.05.3.1-.18-.08-.22-.1-.11-.05.05.02.1.05.14.07.15.08.3.21.45.28-.3-.13-.15-.12-.03,0,.04.04.09.09.13.13l.06.07c.1.12.08.09-.07-.09,0,0,.09.13.1.15.05.08.09.16.14.24.16.26-.09-.29,0-.02.05.15.1.29.13.44l.02.09c.03.16.02.12-.01-.13-.02.06.01.16.01.23,0,.07,0,.15,0,.22,0,.3.08-.28.02-.09-.02.07-.03.15-.05.22-.01.05-.14.41-.04.15s-.02.02-.04.06c-.04.07-.2.22-.03.07.19-.17-.02.02-.06.06l-.08.08c-.12.11-.11.1.04-.03-.01.03-.2.1-.19.11l.16-.06c-.07.03-.14.05-.21.06h.09c.13-.02.12-.02-.02-.01-.17,0-.15,0,.07.02-.07-.02-.14-.03-.21-.06,0,0,.32.18.05.02-.02-.01-.27-.14-.27-.17,0-.03.28.27.09.06-.01-.02-.19-.2-.19-.2.06-.02.18.27.06.08-.05-.08-.1-.16-.15-.24,0,0-.07-.16-.08-.17.09.22.1.25.05.1-.02-.06-.04-.12-.05-.18,0,0-.03-.17-.04-.18.03.25.03.29.02.12,0-.06,0-.12,0-.18,0-.06,0-.12,0-.18.02-.16,0-.12-.02.13.01-.06.03-.12.04-.18,0-.03.06-.16.06-.17-.1.22-.11.25-.04.11.02-.04.05-.08.07-.12.05-.17-.24.25-.05.06.04-.04.3-.28.09-.1-.2.17,0,.01.05-.02.24-.14.06.01-.07.01.07,0,.17-.06.23-.07.27-.07.06.02-.08,0,.13.02.35.01.49,0-.36.03-.26-.04-.08,0,.07.02.15.06.23.07-.32-.05-.24-.09-.08-.01.23.11-.24-.24-.05-.05.04.05.11.14.16.17l-.14-.18s.06.09.08.14c-.16-.1-.09-.31-.05-.08.02.1-.04-.4,0-.03.03.28.09-.27.02-.11-.03.06-.08.22-.08.28,0-.23.13-.26.04-.13-.03.05-.06.1-.09.15-.09.13-.06.1.08-.1-.02,0-.09.1-.12.12-.04.04-.08.08-.13.11.2-.15.23-.18.1-.09-.03.01-.13.06-.14.08.23-.09.28-.11.13-.06-.16.04-.1.03.16,0-.04,0-.13,0-.16,0-.16-.01-.11,0,.15.02-.06-.01-.11-.03-.16-.05-.74-.26-1.67.29-1.85,1.05-.19.84.25,1.57,1.05,1.85,2.57.9,4.91-2.37,3.59-4.61-.6-1.01-1.76-1.58-2.91-1.58s-2.28.56-2.95,1.54c-1.42,2.06-.11,5.31,2.3,5.89,1.45.35,2.98-.41,3.69-1.71.54-.99.64-2.21.3-3.29-.73-2.35-3.1-3.62-5.48-3.33-1.33.16-2.89.6-3.67,1.78-.71,1.07-.51,2.6-.27,3.79.45,2.22,2,4.36,4.32,4.82,1.15.23,2.41.13,3.43-.5,1.13-.7,1.81-1.9,2.09-3.18.47-2.13.06-4.73-1.72-6.18s-4.28-1.44-5.93.07c-.45.41-.71.91-.94,1.46-.3.73.32,1.68,1.05,1.85.87.2,1.52-.27,1.85-1.05h0Z"/>
  <path class="cls-1" d="M359.32,270.16c-7.7-12.28-15.76-24.33-24.15-36.15-.94-1.32-2.62-1.95-4.1-1.08-1.3.76-2.02,2.78-1.08,4.1,8.39,11.82,16.44,23.87,24.15,36.15,2.05,3.26,7.24.26,5.18-3.03h0Z"/>
</svg>